<?xml version="1.0" encoding="UTF-8"?> <svg xmlns="http://www.w3.org/2000/svg" xmlns:xlink="http://www.w3.org/1999/xlink" id="MART_Logo" data-name="MART Logo" width="126" height="64" viewBox="0 0 126 64"><defs><clipPath id="clip-path"><rect id="Rectangle_6" data-name="Rectangle 6" width="126" height="64" fill="none"></rect></clipPath></defs><path id="Path_30" data-name="Path 30" d="M18.5,60.944l.613,1.481H17.882Zm-.437-.878-1.724,3.867h.918l.342-.828h1.8l.342.828h.94l-1.73-3.867Z" fill="#fff"></path><path id="Path_31" data-name="Path 31" d="M27.513,60.066l-1.194,2.762-1.178-2.762h-.966l1.669,3.867h.883L28.4,60.066Z" fill="#fff"></path><g id="Group_12" data-name="Group 12"><g id="Group_11" data-name="Group 11" clip-path="url(#clip-path)"><path id="Path_32" data-name="Path 32" d="M33.212,62A1.211,1.211,0,1,0,32,63.238,1.179,1.179,0,0,0,33.212,62m-3.327,0A2.12,2.12,0,1,1,32,64a2,2,0,0,1-2.117-2" fill="#fff"></path><path id="Path_33" data-name="Path 33" d="M37.718,60.8h-.73v1.348h.73c.547,0,.823-.254.823-.674s-.276-.674-.823-.674m.84,3.137-.746-1.076h-.824v1.076h-.9V60.066h1.674c1.034,0,1.681.536,1.681,1.4a1.258,1.258,0,0,1-.8,1.221l.868,1.242Z" fill="#fff"></path><path id="Path_34" data-name="Path 34" d="M44.314,60.066v2.348l-1.923-2.348H41.65v3.867h.884V61.585l1.93,2.348H45.2V60.066Z" fill="#fff"></path><path id="Path_35" data-name="Path 35" d="M49.168,60.944l.613,1.481H48.554Zm-.437-.878-1.724,3.867h.917l.343-.828h1.8l.342.828h.94l-1.73-3.867Z" fill="#fff"></path><path id="Path_36" data-name="Path 36" d="M54.961,63.2a1.2,1.2,0,1,0,0-2.4h-.819v2.4Zm-1.714-3.132h1.758a1.943,1.943,0,1,1,0,3.867H53.247Z" fill="#fff"></path><path id="Path_37" data-name="Path 37" d="M62.279,62a1.21,1.21,0,1,0-1.21,1.238A1.179,1.179,0,0,0,62.279,62m-3.327,0a2.12,2.12,0,1,1,2.117,2,2,2,0,0,1-2.117-2" fill="#fff"></path><path id="Path_38" data-name="Path 38" d="M70.43,61.47c0-.425-.276-.674-.824-.674h-.729v1.342h.729c.548,0,.824-.248.824-.668m.907,0c0,.861-.647,1.4-1.681,1.4h-.779v1.067h-.9V60.067h1.675c1.034,0,1.681.535,1.681,1.4" fill="#fff"></path><path id="Path_39" data-name="Path 39" d="M74.993,60.8h-.731v1.348h.731c.546,0,.822-.254.822-.674s-.276-.674-.822-.674m.839,3.137-.746-1.076h-.824v1.076h-.894V60.066h1.673c1.034,0,1.681.536,1.681,1.4a1.258,1.258,0,0,1-.8,1.221l.868,1.242Z" fill="#fff"></path><path id="Path_40" data-name="Path 40" d="M81.981,62a1.21,1.21,0,1,0-1.21,1.238A1.179,1.179,0,0,0,81.981,62m-3.327,0a2.12,2.12,0,1,1,2.117,2,2,2,0,0,1-2.117-2" fill="#fff"></path><path id="Path_41" data-name="Path 41" d="M87.429,61.47c0-.425-.276-.674-.824-.674h-.729v1.342h.729c.548,0,.824-.248.824-.668m.907,0c0,.861-.647,1.4-1.681,1.4h-.779v1.067h-.9V60.067h1.675c1.034,0,1.681.535,1.681,1.4" fill="#fff"></path><path id="Path_42" data-name="Path 42" d="M90.443,60.066v3.867h3v-.718H91.333v-.9h1.8v-.7h-1.8v-.839h2.034v-.719Z" fill="#fff"></path><path id="Path_43" data-name="Path 43" d="M97.295,60.8h-.73v1.348h.73c.547,0,.823-.254.823-.674s-.276-.674-.823-.674m.84,3.137-.746-1.076h-.824v1.076h-.9V60.066h1.674c1.034,0,1.681.536,1.681,1.4a1.258,1.258,0,0,1-.8,1.221l.868,1.242Z" fill="#fff"></path><path id="Path_44" data-name="Path 44" d="M100.794,60.066V60.8h1.238v3.138h.9V60.8h1.239v-.729Z" fill="#fff"></path><path id="Path_45" data-name="Path 45" d="M108.788,60.066l-1.034,1.718-1.033-1.718h-.951l1.5,2.487v1.38h.895v-1.37l1.5-2.5Z" fill="#fff"></path><path id="Path_46" data-name="Path 46" d="M35,0V1.97h4.335V13h2.234V1.97h4.2V0Z" fill="#fff"></path><path id="Path_47" data-name="Path 47" d="M63.613,0V5.384H56.782V0H54.548V13h2.234V7.354h6.831V13h2.233V0Z" fill="#fff"></path><path id="Path_48" data-name="Path 48" d="M75.41,0V13H85V11.03H77.643V7.354h6.306V5.384H77.643V1.97h7.094V0Z" fill="#fff"></path><path id="Path_49" data-name="Path 49" d="M27.619,21,15.076,42.528,2.534,21H0V50H2.914V26.952l11.4,19.376h1.521l11.4-19.5V50h2.914V21Z" fill="#fff"></path><path id="Path_50" data-name="Path 50" d="M58.93,39.742,51.962,24.166,44.993,39.742Zm1.14,2.533H43.853L40.433,50H37.265L50.441,21h3.041l13.3,29H63.491Z" fill="#fff"></path><path id="Path_51" data-name="Path 51" d="M94.294,30.878c0-4.686-3.04-7.345-8.869-7.345H77.7V38.1h7.728c5.7.127,8.869-2.659,8.869-7.218M94.421,50l-6.588-9.371a13.851,13.851,0,0,1-2.282.126H77.824V50h-3.04V21h10.9c7.348,0,11.909,3.672,11.909,9.878A9.027,9.027,0,0,1,91,40l7.1,9.877H94.421Z" fill="#fff"></path><path id="Path_52" data-name="Path 52" d="M102.562,21v2.659H112.7V50h3.168V23.659H126V21Z" fill="#fff"></path></g></g></svg> 