<?xml version="1.0" encoding="utf-8"?>
<!-- Generator: Adobe Illustrator 19.0.0, SVG Export Plug-In . SVG Version: 6.00 Build 0)  -->
<svg version="1.1" id="Layer_1" xmlns="http://www.w3.org/2000/svg" xmlns:xlink="http://www.w3.org/1999/xlink" x="0px" y="0px"
	 viewBox="0 0 149.4 84.8" style="enable-background:new 0 0 149.4 84.8;" xml:space="preserve">
<style type="text/css">
	.st0{fill:#010101;}
</style>
<path class="st0" d="M63.9,4h-0.8c0-1.2-2.3-3.4-4.4-3.4v15.9c0,0.9,0.5,1.3,1.3,1.3v0.1h-6.8v-0.1c0.7,0,1.3-0.4,1.3-1.3V0.5
	C52.3,0.5,50,2.8,50,4h-0.8V0h14.6V4z"/>
<path class="st0" d="M66.3,0.1V0h6.8v0.1c-0.7,0-1.3,0.4-1.3,1.3v5.7h4.4V1.4c0-0.9-0.5-1.3-1.3-1.3V0h6.8v0.1
	c-0.7,0-1.3,0.4-1.3,1.3v14.9c0,0.9,0.5,1.3,1.3,1.3v0.1h-6.8v-0.1c0.7,0,1.3-0.4,1.3-1.3V7.9h-4.4v8.4c0,0.9,0.5,1.3,1.3,1.3v0.1
	h-6.8v-0.1c0.7,0,1.3-0.4,1.3-1.3V1.4C67.6,0.6,67,0.1,66.3,0.1z"/>
<path class="st0" d="M95.7,3.1h-0.8c0-1.1-3.1-2.5-6.3-2.5v6.8h3.8c0.8,0,1.5-0.3,1.5-0.6h0.2v2.2H94c0-0.4-0.7-0.6-1.5-0.6h-3.8
	v8.7c3.7,0,6.6-1.3,6.6-2.6h0.8v3.2h-13v-0.1c0.7,0,1.3-0.4,1.3-1.3V1.4c0-0.9-0.5-1.3-1.3-1.3V0h12.6V3.1z"/>
<path class="st0" d="M9.4,49.4c-4.5,0-8.9-1.6-8.9-3.3v-4.9h6.4v5c0,0.7,1.2,1.4,2.4,1.4c1.3,0,2.4-0.6,2.4-1.4V22.5
	c0-1.4-0.8-2.1-1.9-2.1v-0.2h10.3v0.2c-1.1,0-1.9,0.7-1.9,2.1V46C18.3,47.8,13.8,49.4,9.4,49.4z"/>
<path class="st0" d="M28.9,48.8V49h-7v-0.2c0.6,0,2-1.2,2.3-1.9l8.7-26.7H37l7,26.7c0.3,0.7,1.1,1.9,2,1.9V49h-10v-0.2
	c0.7,0,1.4-0.8,1.4-1.4L36,41.2h-6.8l-1.8,5.8C27.4,47.5,27.9,48.8,28.9,48.8z M35.6,39.9l-2.7-10.7l-3.3,10.7H35.6z"/>
<path class="st0" d="M60,21c-2.1,0-3.9,0.6-4,1.6v22.7c0,1.3,1.3,2.8,4.1,2.8c3,0,4.5-1.4,4.7-2.8v-6.4h4.1v6.5
	c-0.1,2.4-4.4,4-9.5,4c-6.5,0-9.6-1.6-9.6-4V23.8c0-2.5,5.3-4,10.7-4c3.2,0,4.9,0.2,8,0.4v5h-0.7C66.4,23.3,64.3,21,60,21z"/>
<path class="st0" d="M98.4,48.8V49H88.2v-0.2c0.8,0,1.4-0.7,1.4-1.5c0-0.3-0.1-0.6-0.2-1L84.3,31l-2.8,2v13.7c0,1.4,0.8,2.1,1.9,2.1
	V49H72.5v-0.2c1.1,0,1.9-0.7,1.9-2.1V22.5c0-1.4-0.8-2.1-1.9-2.1v-0.2h10.8v0.2c-1.1,0-1.9,0.7-1.9,2.1V31l8.8-8.6
	c0.4-0.4,0.5-1,0.5-1.2c0-0.5-0.7-0.7-1.4-0.7v-0.2h9v0.2c-0.8,0-2.2,0.5-4,1.9l-5.1,4.2l6.8,19.9C96.7,47.9,97.1,48.8,98.4,48.8z"
	/>
<path class="st0" d="M119.4,25.2h-1.2c0-1.9-4.7-4-9.5-4v11.1h5.8c1.3,0,2.3-0.5,2.3-1h0.4v3.6h-0.4c0-0.6-1-1-2.3-1h-5.8V48
	c5.6,0,10-2.1,10-4.2h1.2V49h-19.6v-0.2c1.1,0,1.9-0.7,1.9-2.1V22.5c0-1.4-0.8-2.1-1.9-2.1v-0.2h19.1V25.2z"/>
<path class="st0" d="M147.6,26.6h-1.2c0-1.9-3.4-5.6-6.6-5.6v25.6c0,1.4,0.8,2.1,1.9,2.1V49h-10.3v-0.2c1.1,0,1.9-0.7,1.9-2.1V21
	c-3.2,0-6.6,3.7-6.6,5.6h-1.2v-6.4h22V26.6z"/>
<path class="st0" d="M20.8,52.2v-0.2h11.5v0.2c-1.2,0-2.2,0.8-2.2,2.4v27.5c0,1.6,0.9,2.4,2.2,2.4v0.2H21.1v-0.2
	c1.2,0,2.2-0.8,2.2-2.4V62l-8.4,22.7h-1.2L5.6,62v20.1c0,1.6,0.9,2.4,2.2,2.4v0.2H0v-0.2c1.2,0,2.2-0.8,2.2-2.4V54.6
	c0-1.6-0.9-2.4-2.2-2.4v-0.2h11.9v0.2c-0.9,0-1.8,0.7-1.8,1.8c0,0.3,5.9,16.7,5.9,16.7s6.3-16.8,6.3-17
	C22.4,52.4,21.5,52.2,20.8,52.2z"/>
<path class="st0" d="M42.3,84.5v0.2h-7.9v-0.2c0.7,0,2.3-1.4,2.6-2.2l9.9-30.4h4.7l8,30.4c0.3,0.8,1.2,2.2,2.3,2.2v0.2H50.5v-0.2
	c0.8,0,1.7-0.9,1.7-1.6l-1.8-7h-7.7l-2.1,6.6C40.6,83.1,41.2,84.5,42.3,84.5z M50,74.4l-3.1-12.2l-3.8,12.2H50z"/>
<path class="st0" d="M93.4,84.5v0.2H81.8v-0.2c0.9,0,1.5-0.8,1.5-1.7c0-0.3-0.1-0.7-0.2-1.1l-5.8-17.4l-3.2,2.3v15.6
	c0,1.6,0.9,2.4,2.2,2.4v0.2H64v-0.2c1.2,0,2.2-0.8,2.2-2.4V54.6c0-1.6-0.9-2.4-2.2-2.4v-0.2h12.4v0.2c-1.2,0-2.2,0.8-2.2,2.4v9.7
	l10.1-9.8c0.5-0.5,0.6-1.1,0.6-1.4c0-0.5-0.8-0.8-1.5-0.8v-0.2h10.3v0.2c-0.9,0-2.5,0.5-4.5,2.2l-5.9,4.8L91,81.9
	C91.5,83.5,92,84.5,93.4,84.5z"/>
<path class="st0" d="M117.4,57.6h-1.3c0-2.1-5.4-4.5-10.8-4.5v12.6h6.6c1.4,0,2.6-0.5,2.6-1.2h0.4v4.1h-0.4c0-0.7-1.1-1.2-2.6-1.2
	h-6.6v16.1c6.4,0,11.4-2.4,11.4-4.8h1.3v5.9H95.7v-0.2c1.2,0,2.2-0.8,2.2-2.4V54.6c0-1.6-0.9-2.4-2.2-2.4v-0.2h21.7V57.6z"/>
<path class="st0" d="M145.8,56V63c0,1.7-1.7,2.9-4.3,3.6l5.6,16c0.5,1.4,1.1,2,2.4,2v0.2h-11.2v-0.2c0.7,0,1.4-0.5,1.4-1.5
	c0-0.3-3.4-9.6-5.7-16H131v15.1c0,1.6,0.9,2.4,2.2,2.4v0.2h-10.9v-0.2c1.2,0,2.2-0.8,2.2-2.4V54.6c0-1.6-0.9-2.4-2.2-2.4v-0.2h14.3
	C141.9,51.9,145.8,53.5,145.8,56z M131,53.3v12.4h4.6c2,0,3.1-0.9,3.1-1.7v-9c0-0.8-1.1-1.7-3.1-1.7H131z"/>
</svg>
