<svg id="visual" viewBox="0 0 900 600" width="900" height="600" xmlns="http://www.w3.org/2000/svg" xmlns:xlink="http://www.w3.org/1999/xlink" version="1.1"><path d="M0 405L10.7 406.7C21.3 408.3 42.7 411.7 64.2 416.2C85.7 420.7 107.3 426.3 128.8 425.3C150.3 424.3 171.7 416.7 193 411.2C214.3 405.7 235.7 402.3 257 403.8C278.3 405.3 299.7 411.7 321.2 416.5C342.7 421.3 364.3 424.7 385.8 429.3C407.3 434 428.7 440 450 441.2C471.3 442.3 492.7 438.7 514.2 436.2C535.7 433.7 557.3 432.3 578.8 432C600.3 431.7 621.7 432.3 643 436.2C664.3 440 685.7 447 707 446.3C728.3 445.7 749.7 437.3 771.2 429.7C792.7 422 814.3 415 835.8 411C857.3 407 878.7 406 889.3 405.5L900 405L900 601L889.3 601C878.7 601 857.3 601 835.8 601C814.3 601 792.7 601 771.2 601C749.7 601 728.3 601 707 601C685.7 601 664.3 601 643 601C621.7 601 600.3 601 578.8 601C557.3 601 535.7 601 514.2 601C492.7 601 471.3 601 450 601C428.7 601 407.3 601 385.8 601C364.3 601 342.7 601 321.2 601C299.7 601 278.3 601 257 601C235.7 601 214.3 601 193 601C171.7 601 150.3 601 128.8 601C107.3 601 85.7 601 64.2 601C42.7 601 21.3 601 10.7 601L0 601Z" fill="#ea5a1b"></path><path d="M0 434L10.7 441.7C21.3 449.3 42.7 464.7 64.2 464.3C85.7 464 107.3 448 128.8 440.5C150.3 433 171.7 434 193 443C214.3 452 235.7 469 257 474.7C278.3 480.3 299.7 474.7 321.2 464.5C342.7 454.3 364.3 439.7 385.8 442.3C407.3 445 428.7 465 450 470.5C471.3 476 492.7 467 514.2 460C535.7 453 557.3 448 578.8 447.2C600.3 446.3 621.7 449.7 643 446.5C664.3 443.3 685.7 433.7 707 430C728.3 426.3 749.7 428.7 771.2 431.3C792.7 434 814.3 437 835.8 443.5C857.3 450 878.7 460 889.3 465L900 470L900 601L889.3 601C878.7 601 857.3 601 835.8 601C814.3 601 792.7 601 771.2 601C749.7 601 728.3 601 707 601C685.7 601 664.3 601 643 601C621.7 601 600.3 601 578.8 601C557.3 601 535.7 601 514.2 601C492.7 601 471.3 601 450 601C428.7 601 407.3 601 385.8 601C364.3 601 342.7 601 321.2 601C299.7 601 278.3 601 257 601C235.7 601 214.3 601 193 601C171.7 601 150.3 601 128.8 601C107.3 601 85.7 601 64.2 601C42.7 601 21.3 601 10.7 601L0 601Z" fill="#fa4863"></path><path d="M0 490L10.7 488.7C21.3 487.3 42.7 484.7 64.2 480.5C85.7 476.3 107.3 470.7 128.8 469.7C150.3 468.7 171.7 472.3 193 472.5C214.3 472.7 235.7 469.3 257 467.3C278.3 465.3 299.7 464.7 321.2 464.7C342.7 464.7 364.3 465.3 385.8 468.7C407.3 472 428.7 478 450 482C471.3 486 492.7 488 514.2 487C535.7 486 557.3 482 578.8 479C600.3 476 621.7 474 643 469.2C664.3 464.3 685.7 456.7 707 459.5C728.3 462.3 749.7 475.7 771.2 477.3C792.7 479 814.3 469 835.8 462.8C857.3 456.7 878.7 454.3 889.3 453.2L900 452L900 601L889.3 601C878.7 601 857.3 601 835.8 601C814.3 601 792.7 601 771.2 601C749.7 601 728.3 601 707 601C685.7 601 664.3 601 643 601C621.7 601 600.3 601 578.8 601C557.3 601 535.7 601 514.2 601C492.7 601 471.3 601 450 601C428.7 601 407.3 601 385.8 601C364.3 601 342.7 601 321.2 601C299.7 601 278.3 601 257 601C235.7 601 214.3 601 193 601C171.7 601 150.3 601 128.8 601C107.3 601 85.7 601 64.2 601C42.7 601 21.3 601 10.7 601L0 601Z" fill="#ec55a0"></path><path d="M0 511L10.7 507.3C21.3 503.7 42.7 496.3 64.2 496C85.7 495.7 107.3 502.3 128.8 500.3C150.3 498.3 171.7 487.7 193 482.8C214.3 478 235.7 479 257 485C278.3 491 299.7 502 321.2 506.8C342.7 511.7 364.3 510.3 385.8 507.3C407.3 504.3 428.7 499.7 450 499.8C471.3 500 492.7 505 514.2 501.8C535.7 498.7 557.3 487.3 578.8 488.3C600.3 489.3 621.7 502.7 643 503.3C664.3 504 685.7 492 707 489.5C728.3 487 749.7 494 771.2 493.3C792.7 492.7 814.3 484.3 835.8 488.3C857.3 492.3 878.7 508.7 889.3 516.8L900 525L900 601L889.3 601C878.7 601 857.3 601 835.8 601C814.3 601 792.7 601 771.2 601C749.7 601 728.3 601 707 601C685.7 601 664.3 601 643 601C621.7 601 600.3 601 578.8 601C557.3 601 535.7 601 514.2 601C492.7 601 471.3 601 450 601C428.7 601 407.3 601 385.8 601C364.3 601 342.7 601 321.2 601C299.7 601 278.3 601 257 601C235.7 601 214.3 601 193 601C171.7 601 150.3 601 128.8 601C107.3 601 85.7 601 64.2 601C42.7 601 21.3 601 10.7 601L0 601Z" fill="#c371cd"></path><path d="M0 534L10.7 533.3C21.3 532.7 42.7 531.3 64.2 529.3C85.7 527.3 107.3 524.7 128.8 521.7C150.3 518.7 171.7 515.3 193 519.3C214.3 523.3 235.7 534.7 257 535.5C278.3 536.3 299.7 526.7 321.2 526.7C342.7 526.7 364.3 536.3 385.8 540.5C407.3 544.7 428.7 543.3 450 543.3C471.3 543.3 492.7 544.7 514.2 543C535.7 541.3 557.3 536.7 578.8 530.5C600.3 524.3 621.7 516.7 643 513.2C664.3 509.7 685.7 510.3 707 510.2C728.3 510 749.7 509 771.2 512.8C792.7 516.7 814.3 525.3 835.8 529C857.3 532.7 878.7 531.3 889.3 530.7L900 530L900 601L889.3 601C878.7 601 857.3 601 835.8 601C814.3 601 792.7 601 771.2 601C749.7 601 728.3 601 707 601C685.7 601 664.3 601 643 601C621.7 601 600.3 601 578.8 601C557.3 601 535.7 601 514.2 601C492.7 601 471.3 601 450 601C428.7 601 407.3 601 385.8 601C364.3 601 342.7 601 321.2 601C299.7 601 278.3 601 257 601C235.7 601 214.3 601 193 601C171.7 601 150.3 601 128.8 601C107.3 601 85.7 601 64.2 601C42.7 601 21.3 601 10.7 601L0 601Z" fill="#8989e3"></path><path d="M0 548L10.7 548.2C21.3 548.3 42.7 548.7 64.2 548.8C85.7 549 107.3 549 128.8 549.5C150.3 550 171.7 551 193 548.3C214.3 545.7 235.7 539.3 257 535.3C278.3 531.3 299.7 529.7 321.2 533.8C342.7 538 364.3 548 385.8 550.2C407.3 552.3 428.7 546.7 450 547.8C471.3 549 492.7 557 514.2 556.7C535.7 556.3 557.3 547.7 578.8 544.2C600.3 540.7 621.7 542.3 643 545.7C664.3 549 685.7 554 707 556.3C728.3 558.7 749.7 558.3 771.2 554.2C792.7 550 814.3 542 835.8 541.7C857.3 541.3 878.7 548.7 889.3 552.3L900 556L900 601L889.3 601C878.7 601 857.3 601 835.8 601C814.3 601 792.7 601 771.2 601C749.7 601 728.3 601 707 601C685.7 601 664.3 601 643 601C621.7 601 600.3 601 578.8 601C557.3 601 535.7 601 514.2 601C492.7 601 471.3 601 450 601C428.7 601 407.3 601 385.8 601C364.3 601 342.7 601 321.2 601C299.7 601 278.3 601 257 601C235.7 601 214.3 601 193 601C171.7 601 150.3 601 128.8 601C107.3 601 85.7 601 64.2 601C42.7 601 21.3 601 10.7 601L0 601Z" fill="#4b9ae0"></path><path d="M0 563L10.7 562.8C21.3 562.7 42.7 562.3 64.2 565.2C85.7 568 107.3 574 128.8 573.7C150.3 573.3 171.7 566.7 193 566.7C214.3 566.7 235.7 573.3 257 573.2C278.3 573 299.7 566 321.2 561.8C342.7 557.7 364.3 556.3 385.8 557.2C407.3 558 428.7 561 450 562.5C471.3 564 492.7 564 514.2 566.7C535.7 569.3 557.3 574.7 578.8 574.3C600.3 574 621.7 568 643 568C664.3 568 685.7 574 707 575.3C728.3 576.7 749.7 573.3 771.2 570.7C792.7 568 814.3 566 835.8 568.3C857.3 570.7 878.7 577.3 889.3 580.7L900 584L900 601L889.3 601C878.7 601 857.3 601 835.8 601C814.3 601 792.7 601 771.2 601C749.7 601 728.3 601 707 601C685.7 601 664.3 601 643 601C621.7 601 600.3 601 578.8 601C557.3 601 535.7 601 514.2 601C492.7 601 471.3 601 450 601C428.7 601 407.3 601 385.8 601C364.3 601 342.7 601 321.2 601C299.7 601 278.3 601 257 601C235.7 601 214.3 601 193 601C171.7 601 150.3 601 128.8 601C107.3 601 85.7 601 64.2 601C42.7 601 21.3 601 10.7 601L0 601Z" fill="#2ca3cc"></path></svg>